<svg width="52" height="52" viewBox="0 0 52 52" fill="none" xmlns="http://www.w3.org/2000/svg">
<g clip-path="url(#clip0_25_242)">
<path d="M25.9998 36.8464C31.9901 36.8464 36.8462 31.9903 36.8462 26C36.8462 20.0097 31.9901 15.1536 25.9998 15.1536C20.0094 15.1536 15.1533 20.0097 15.1533 26C15.1533 31.9903 20.0094 36.8464 25.9998 36.8464Z" stroke="#CF5450" stroke-width="4"/>
<path d="M35.4587 2.55939H16.5417C8.81959 2.55939 2.55957 8.81941 2.55957 16.5415V35.4585C2.55957 43.1807 8.81959 49.4407 16.5417 49.4407H35.4587C43.1809 49.4407 49.4409 43.1807 49.4409 35.4585V16.5415C49.4409 8.81941 43.1809 2.55939 35.4587 2.55939Z" stroke="#CF5450" stroke-width="4"/>
<path d="M40 16C41.6569 16 43 14.6569 43 13C43 11.3431 41.6569 10 40 10C38.3431 10 37 11.3431 37 13C37 14.6569 38.3431 16 40 16Z" fill="#CF5450"/>
</g>
<defs>
<clipPath id="clip0_25_242">
<rect width="52" height="52" fill="white"/>
</clipPath>
</defs>
</svg>
