<svg width="120" height="34" viewBox="0 0 120 34" fill="none" xmlns="http://www.w3.org/2000/svg">
<path d="M107.642 0C109.282 0 110.722 0.148287 111.962 0.444862C113.202 0.741436 114.462 1.3134 115.742 2.16075C117.222 3.13521 118.162 4.66044 118.562 6.73645C118.962 8.81246 119.162 11.3969 119.162 14.4897C119.162 17.7097 119.082 20.3788 118.922 22.4972C118.802 24.5732 118.502 26.6492 118.022 28.7252C117.542 30.6318 116.462 31.9875 114.782 32.7925C113.102 33.5975 111.182 34 109.022 34C108.382 34 107.822 33.9788 107.342 33.9365C106.902 33.8941 106.542 33.8517 106.262 33.8093L104.642 33.6822C103.202 33.5975 102.142 33.4916 101.462 33.3645C100.782 33.2374 100.082 32.9196 99.3619 32.4112C98.6419 31.9028 97.7619 31.0766 96.7219 29.9327C95.2419 28.2804 94.5019 25.1452 94.5019 20.5271V14.5533C94.5019 11.3333 94.5819 8.93957 94.7419 7.37196C94.7819 6.90592 94.9619 6.24922 95.2819 5.40187L95.7019 3.94019C96.1419 2.54206 97.2219 1.54642 98.9419 0.953275C100.662 0.360128 102.262 0.0635549 103.742 0.0635549L107.642 0ZM95.3419 7.49907C95.1419 9.49034 95.0419 12.5408 95.0419 16.6505V18.6206C95.0419 22.0947 95.3819 25.0393 96.0619 27.4542C96.7819 29.8692 98.3419 31.5215 100.742 32.4112C101.342 32.6231 101.962 32.7713 102.602 32.8561C103.282 32.9408 103.942 33.0044 104.582 33.0467C104.822 33.0467 105.122 33.0467 105.482 33.0467C105.842 33.0891 106.262 33.1526 106.742 33.2374C107.422 33.3645 108.202 33.428 109.082 33.428C111.482 33.428 113.302 33.0467 114.542 32.2841C115.782 31.4791 116.622 30.4623 117.062 29.2336C117.542 27.9626 117.862 26.3315 118.022 24.3402L118.142 23.0056C118.422 19.4467 118.562 16.714 118.562 14.8075C118.562 9.5539 117.902 5.84673 116.582 3.68598C115.062 2.41495 113.702 1.58879 112.502 1.20748C111.342 0.826171 109.882 0.635516 108.122 0.635516L103.802 0.699067C102.562 0.699067 101.082 0.932091 99.3619 1.39813C97.6819 1.86418 96.6619 2.77508 96.3019 4.13084L95.8819 5.52897C95.5619 6.37633 95.3819 7.03302 95.3419 7.49907ZM107.042 9.53271C108.642 9.53271 109.802 10.1894 110.522 11.5028C111.282 12.8162 111.662 14.8498 111.662 17.6037C111.662 20.1458 111.302 22.01 110.582 23.1963C109.902 24.3826 108.762 24.9757 107.162 24.9757C105.882 24.9757 104.742 24.6791 103.742 24.086C102.782 23.4505 102.302 22.5819 102.302 21.4804L102.362 19.5103L102.302 16.015C102.302 13.5576 102.642 11.9688 103.322 11.2486C103.722 10.6978 104.262 10.2741 104.942 9.97757C105.622 9.681 106.322 9.53271 107.042 9.53271ZM102.962 19.828C102.962 20.0822 102.942 20.3576 102.902 20.6542C102.862 20.9084 102.842 21.1838 102.842 21.4804C102.842 22.3701 103.262 23.0692 104.102 23.5776C104.982 24.086 105.982 24.3402 107.102 24.3402C108.582 24.3402 109.602 23.8106 110.162 22.7514C110.722 21.6498 111.002 19.8916 111.002 17.4766C111.002 14.8498 110.682 12.9857 110.042 11.8841C109.402 10.7826 108.382 10.2318 106.982 10.2318C106.382 10.2318 105.782 10.3589 105.182 10.6131C104.622 10.8673 104.142 11.2274 103.742 11.6935C103.182 12.2866 102.902 13.8542 102.902 16.3963L102.962 19.828Z" fill="black"/>
<path fill-rule="evenodd" clip-rule="evenodd" d="M95.3419 7.49907C95.1419 9.49034 95.0419 12.5408 95.0419 16.6505V18.6206C95.0419 22.0947 95.3819 25.0393 96.0619 27.4542C96.7819 29.8692 98.3419 31.5215 100.742 32.4112C101.342 32.6231 101.962 32.7713 102.602 32.8561C103.282 32.9408 103.942 33.0044 104.582 33.0467H105.482C105.842 33.0891 106.262 33.1526 106.742 33.2374C107.422 33.3645 108.202 33.428 109.082 33.428C111.482 33.428 113.302 33.0467 114.542 32.2841C115.782 31.4791 116.622 30.4623 117.062 29.2336C117.542 27.9626 117.862 26.3315 118.022 24.3402L118.142 23.0056C118.422 19.4467 118.562 16.714 118.562 14.8075C118.562 9.5539 117.902 5.84673 116.582 3.68598C115.062 2.41495 113.702 1.58879 112.502 1.20748C111.342 0.826171 109.882 0.635516 108.122 0.635516L103.802 0.699067C102.562 0.699067 101.082 0.932091 99.3619 1.39813C97.6819 1.86418 96.6619 2.77508 96.3019 4.13084L95.8819 5.52897C95.5619 6.37633 95.3819 7.03302 95.3419 7.49907ZM110.522 11.5028C109.802 10.1894 108.642 9.53271 107.042 9.53271C106.322 9.53271 105.622 9.681 104.942 9.97757C104.262 10.2741 103.722 10.6978 103.322 11.2486C102.642 11.9688 102.302 13.5576 102.302 16.015L102.362 19.5103L102.302 21.4804C102.302 22.5819 102.782 23.4505 103.742 24.086C104.742 24.6791 105.882 24.9757 107.162 24.9757C108.762 24.9757 109.902 24.3826 110.582 23.1963C111.302 22.01 111.662 20.1458 111.662 17.6037C111.662 14.8498 111.282 12.8162 110.522 11.5028Z" fill="#CF5450"/>
<path d="M91.6702 11.3757C91.6702 13.4093 91.6302 16.4598 91.5502 20.5271C91.4302 23.6199 91.3702 26.7128 91.3702 29.8056C91.3702 30.8224 91.4302 31.8393 91.5502 32.8561C91.3902 33.2374 90.3502 33.428 88.4302 33.428C88.2302 33.428 87.8502 33.4492 87.2902 33.4916C86.7702 33.5763 86.3102 33.6187 85.9102 33.6187C84.1902 33.6187 83.3302 33.0467 83.3302 31.9028L83.3902 23.2598C83.3902 21.3533 83.3102 19.6374 83.1502 18.1121C83.0702 17.4343 83.0302 16.947 83.0302 16.6505C82.9502 15.5913 82.8502 14.7863 82.7302 14.2355C82.6102 13.6424 82.3502 13.0704 81.9502 12.5196C81.6302 12.5196 81.0102 12.329 80.0902 11.9477C78.5702 11.9477 77.5502 12.4773 77.0302 13.5364C76.5102 14.5533 76.2502 15.8243 76.2502 17.3495C76.2502 19.129 76.3102 20.9084 76.4302 22.6878C76.5102 25.0604 76.5502 26.8399 76.5502 28.0262C76.5502 28.6193 76.5102 29.4243 76.4302 30.4411C76.3502 31.4579 76.3102 32.2417 76.3102 32.7925C76.1902 33.0467 75.7702 33.2586 75.0502 33.428C74.3302 33.5975 73.6902 33.6611 73.1302 33.6187L68.3302 33.428C68.3302 28.81 68.2702 24.2555 68.1502 19.7645C68.1102 18.2393 68.0702 16.0785 68.0302 13.2822C67.9902 10.486 67.9702 8.02866 67.9702 5.91028C67.9702 2.81745 68.1502 1.18629 68.5102 1.01682C68.8302 1.01682 69.1702 1.05919 69.5302 1.14392C69.8902 1.18629 70.2502 1.20748 70.6102 1.20748C71.1302 1.20748 71.5902 1.14393 71.9902 1.01682C72.8702 0.847352 73.8502 0.762615 74.9302 0.762615C75.8502 0.762615 76.3902 0.847352 76.5502 1.01682C76.5502 1.73707 76.5902 2.77508 76.6702 4.13084C77.7502 3.28349 78.9502 2.58442 80.2702 2.03364C81.5902 1.48287 82.8502 1.20748 84.0502 1.20748C86.2902 1.20748 87.9502 1.63115 89.0302 2.4785C90.1502 3.28349 90.8702 4.38505 91.1902 5.78318C91.5102 7.18131 91.6702 9.04548 91.6702 11.3757ZM90.8902 32.6019C90.8102 31.585 90.7702 30.8012 90.7702 30.2505C90.7702 28.1321 90.8102 24.9545 90.8902 20.7178C91.0102 17.4555 91.0702 14.2355 91.0702 11.0579C91.0702 8.8972 90.9302 7.18131 90.6502 5.91028C90.3702 4.63925 89.7302 3.64361 88.7302 2.92336C87.7302 2.20312 86.1902 1.84299 84.1102 1.84299C82.8302 1.84299 81.6302 2.11838 80.5102 2.66916C79.3902 3.17757 78.0902 3.919 76.6102 4.89346L76.1302 4.7028C76.0902 4.32149 76.0702 3.77072 76.0702 3.05047C76.0702 2.28785 76.0502 1.73707 76.0102 1.39813C75.4902 1.39813 74.6702 1.48287 73.5502 1.65233C72.6702 1.86417 71.8502 1.97009 71.0902 1.97009C70.6902 1.97009 70.2502 1.94891 69.7702 1.90654C69.3302 1.82181 69.0102 1.75825 68.8102 1.71589C68.6902 5.06293 68.6301 8.45233 68.6301 11.8841C68.6301 14.6804 68.6702 18.8748 68.7502 24.4673C68.8302 28.1956 68.8702 30.9707 68.8702 32.7925C69.5102 32.7078 70.0702 32.6654 70.5502 32.6654C71.1902 32.6654 71.7102 32.729 72.1102 32.8561C72.2702 32.8561 72.7302 32.8561 73.4902 32.8561C74.2902 32.8561 75.0302 32.7502 75.7102 32.5383L75.7702 29.4879C75.8502 28.0474 75.8902 26.9882 75.8902 26.3103C75.8902 25.0816 75.8302 23.8106 75.7102 22.4972C75.6702 22.0735 75.6302 21.5227 75.5902 20.8449C75.5502 20.167 75.5302 19.362 75.5302 18.4299C75.5302 16.1421 75.8302 14.405 76.4302 13.2187C77.0302 11.99 78.1502 11.3757 79.7902 11.3757C80.9502 11.3757 81.6702 11.5452 81.9502 11.8841C82.8302 12.0959 83.3702 13.1551 83.5702 15.0617C83.8102 16.9259 83.9302 19.2561 83.9302 22.0523V25.9925C83.9302 26.8399 83.9102 27.4966 83.8702 27.9626L83.8102 30.2505C83.8102 31.1826 83.8702 32.0299 83.9902 32.7925L87.0502 32.8561C88.4902 32.8561 89.7702 32.7713 90.8902 32.6019Z" fill="black"/>
<path d="M90.8902 32.6019C90.8102 31.585 90.7702 30.8012 90.7702 30.2505C90.7702 28.1321 90.8102 24.9545 90.8902 20.7178C91.0102 17.4555 91.0702 14.2355 91.0702 11.0579C91.0702 8.8972 90.9302 7.18131 90.6502 5.91028C90.3702 4.63925 89.7302 3.64361 88.7302 2.92336C87.7302 2.20312 86.1902 1.84299 84.1102 1.84299C82.8302 1.84299 81.6302 2.11838 80.5102 2.66916C79.3902 3.17757 78.0902 3.919 76.6102 4.89346L76.1302 4.7028C76.0902 4.32149 76.0702 3.77072 76.0702 3.05047C76.0702 2.28785 76.0502 1.73707 76.0102 1.39813C75.4902 1.39813 74.6702 1.48287 73.5502 1.65233C72.6702 1.86417 71.8502 1.97009 71.0902 1.97009C70.6902 1.97009 70.2502 1.94891 69.7702 1.90654C69.3302 1.82181 69.0102 1.75825 68.8102 1.71589C68.6902 5.06293 68.6301 8.45233 68.6301 11.8841C68.6301 14.6804 68.6702 18.8748 68.7502 24.4673C68.8302 28.1956 68.8702 30.9707 68.8702 32.7925C69.5102 32.7078 70.0702 32.6654 70.5502 32.6654C71.1902 32.6654 71.7102 32.729 72.1102 32.8561H73.4902C74.2902 32.8561 75.0302 32.7502 75.7102 32.5383L75.7702 29.4879C75.8502 28.0474 75.8902 26.9882 75.8902 26.3103C75.8902 25.0816 75.8302 23.8106 75.7102 22.4972C75.6702 22.0735 75.6302 21.5227 75.5902 20.8449C75.5502 20.167 75.5302 19.362 75.5302 18.4299C75.5302 16.1421 75.8302 14.405 76.4302 13.2187C77.0302 11.99 78.1502 11.3757 79.7902 11.3757C80.9502 11.3757 81.6702 11.5452 81.9502 11.8841C82.8302 12.0959 83.3702 13.1551 83.5702 15.0617C83.8102 16.9259 83.9302 19.2561 83.9302 22.0523V25.9925C83.9302 26.8399 83.9102 27.4966 83.8702 27.9626L83.8102 30.2505C83.8102 31.1826 83.8702 32.0299 83.9902 32.7925L87.0502 32.8561C88.4902 32.8561 89.7702 32.7713 90.8902 32.6019Z" fill="#CF5450"/>
<path d="M53.7356 0C55.3756 0 56.8156 0.148287 58.0556 0.444862C59.2956 0.741436 60.5556 1.3134 61.8356 2.16075C63.3156 3.13521 64.2556 4.66044 64.6556 6.73645C65.0556 8.81246 65.2556 11.3969 65.2556 14.4897C65.2556 17.7097 65.1756 20.3788 65.0156 22.4972C64.8956 24.5732 64.5956 26.6492 64.1156 28.7252C63.6356 30.6318 62.5556 31.9875 60.8756 32.7925C59.1956 33.5975 57.2756 34 55.1156 34C54.4756 34 53.9156 33.9788 53.4356 33.9365C52.9956 33.8941 52.6356 33.8517 52.3556 33.8093L50.7356 33.6822C49.2956 33.5975 48.2356 33.4916 47.5556 33.3645C46.8756 33.2374 46.1756 32.9196 45.4556 32.4112C44.7356 31.9028 43.8556 31.0766 42.8156 29.9327C41.3356 28.2804 40.5956 25.1452 40.5956 20.5271V14.5533C40.5956 11.3333 40.6756 8.93957 40.8356 7.37196C40.8756 6.90592 41.0556 6.24922 41.3756 5.40187L41.7956 3.94019C42.2356 2.54206 43.3156 1.54642 45.0356 0.953275C46.7556 0.360128 48.3556 0.0635549 49.8356 0.0635549L53.7356 0ZM41.4356 7.49907C41.2356 9.49034 41.1356 12.5408 41.1356 16.6505V18.6206C41.1356 22.0947 41.4756 25.0393 42.1556 27.4542C42.8756 29.8692 44.4356 31.5215 46.8356 32.4112C47.4356 32.6231 48.0556 32.7713 48.6956 32.8561C49.3756 32.9408 50.0356 33.0044 50.6756 33.0467C50.9156 33.0467 51.2156 33.0467 51.5756 33.0467C51.9356 33.0891 52.3556 33.1526 52.8356 33.2374C53.5156 33.3645 54.2956 33.428 55.1756 33.428C57.5756 33.428 59.3956 33.0467 60.6356 32.2841C61.8756 31.4791 62.7156 30.4623 63.1556 29.2336C63.6356 27.9626 63.9556 26.3315 64.1156 24.3402L64.2356 23.0056C64.5156 19.4467 64.6556 16.714 64.6556 14.8075C64.6556 9.5539 63.9956 5.84673 62.6756 3.68598C61.1556 2.41495 59.7956 1.58879 58.5956 1.20748C57.4356 0.826171 55.9756 0.635516 54.2156 0.635516L49.8956 0.699067C48.6556 0.699067 47.1756 0.932091 45.4556 1.39813C43.7756 1.86418 42.7556 2.77508 42.3956 4.13084L41.9756 5.52897C41.6556 6.37633 41.4756 7.03302 41.4356 7.49907ZM53.1356 9.53271C54.7356 9.53271 55.8956 10.1894 56.6156 11.5028C57.3756 12.8162 57.7556 14.8498 57.7556 17.6037C57.7556 20.1458 57.3956 22.01 56.6756 23.1963C55.9956 24.3826 54.8556 24.9757 53.2556 24.9757C51.9756 24.9757 50.8356 24.6791 49.8356 24.086C48.8756 23.4505 48.3956 22.5819 48.3956 21.4804L48.4556 19.5103L48.3956 16.015C48.3956 13.5576 48.7356 11.9688 49.4156 11.2486C49.8156 10.6978 50.3556 10.2741 51.0356 9.97757C51.7156 9.681 52.4156 9.53271 53.1356 9.53271ZM49.0556 19.828C49.0556 20.0822 49.0356 20.3576 48.9956 20.6542C48.9556 20.9084 48.9356 21.1838 48.9356 21.4804C48.9356 22.3701 49.3556 23.0692 50.1956 23.5776C51.0756 24.086 52.0756 24.3402 53.1956 24.3402C54.6756 24.3402 55.6956 23.8106 56.2556 22.7514C56.8156 21.6498 57.0956 19.8916 57.0956 17.4766C57.0956 14.8498 56.7756 12.9857 56.1356 11.8841C55.4956 10.7826 54.4756 10.2318 53.0756 10.2318C52.4756 10.2318 51.8756 10.3589 51.2756 10.6131C50.7156 10.8673 50.2356 11.2274 49.8356 11.6935C49.2756 12.2866 48.9956 13.8542 48.9956 16.3963L49.0556 19.828Z" fill="black"/>
<path fill-rule="evenodd" clip-rule="evenodd" d="M41.4356 7.49907C41.2356 9.49034 41.1356 12.5408 41.1356 16.6505V18.6206C41.1356 22.0947 41.4756 25.0393 42.1556 27.4542C42.8756 29.8692 44.4356 31.5215 46.8356 32.4112C47.4356 32.6231 48.0556 32.7713 48.6956 32.8561C49.3756 32.9408 50.0356 33.0044 50.6756 33.0467H51.5756C51.9356 33.0891 52.3556 33.1526 52.8356 33.2374C53.5156 33.3645 54.2956 33.428 55.1756 33.428C57.5756 33.428 59.3956 33.0467 60.6356 32.2841C61.8756 31.4791 62.7156 30.4623 63.1556 29.2336C63.6356 27.9626 63.9556 26.3315 64.1156 24.3402L64.2356 23.0056C64.5156 19.4467 64.6556 16.714 64.6556 14.8075C64.6556 9.5539 63.9956 5.84673 62.6756 3.68598C61.1556 2.41495 59.7956 1.58879 58.5956 1.20748C57.4356 0.826171 55.9756 0.635516 54.2156 0.635516L49.8956 0.699067C48.6556 0.699067 47.1756 0.932091 45.4556 1.39813C43.7756 1.86418 42.7556 2.77508 42.3956 4.13084L41.9756 5.52897C41.6556 6.37633 41.4756 7.03302 41.4356 7.49907ZM56.6156 11.5028C55.8956 10.1894 54.7356 9.53271 53.1356 9.53271C52.4156 9.53271 51.7156 9.681 51.0356 9.97757C50.3556 10.2741 49.8156 10.6978 49.4156 11.2486C48.7356 11.9688 48.3956 13.5576 48.3956 16.015L48.4556 19.5103L48.3956 21.4804C48.3956 22.5819 48.8756 23.4505 49.8356 24.086C50.8356 24.6791 51.9756 24.9757 53.2556 24.9757C54.8556 24.9757 55.9956 24.3826 56.6756 23.1963C57.3956 22.01 57.7556 20.1458 57.7556 17.6037C57.7556 14.8498 57.3756 12.8162 56.6156 11.5028Z" fill="#CF5450"/>
<path d="M37.8 11.6299C37.8 14.6804 37.74 17.7308 37.62 20.7813C37.54 24.7639 37.5 27.772 37.5 29.8056C37.5 30.8224 37.56 31.8393 37.68 32.8561C37.52 33.2374 36.48 33.428 34.56 33.428C34.36 33.428 33.98 33.4492 33.42 33.4916C32.9 33.5763 32.44 33.6187 32.04 33.6187C30.32 33.6187 29.46 33.0467 29.46 31.9028L29.52 22.8785C29.52 20.5059 29.4 18.1757 29.16 15.8878C28.96 13.5576 28.5 12.3925 27.78 12.3925L27.72 12.329C27.24 12.0748 26.68 11.9477 26.04 11.9477C25.08 11.9477 24.3 12.2019 23.7 12.7103C23.7 15.4642 23.64 18.2181 23.52 20.972C23.48 21.904 23.44 23.2386 23.4 24.9757C23.36 26.6704 23.34 28.1533 23.34 29.4243C23.34 30.653 23.42 31.7545 23.58 32.729C23.42 33.195 22.32 33.428 20.28 33.428C20.12 33.428 19.78 33.4492 19.26 33.4916C18.78 33.5763 18.32 33.6187 17.88 33.6187C16.2 33.6187 15.36 33.0467 15.36 31.9028L15.42 23.2598C15.42 21.3533 15.34 19.6374 15.18 18.1121C15.1 17.4343 15.06 16.947 15.06 16.6505C14.98 15.5913 14.88 14.7863 14.76 14.2355C14.64 13.6424 14.38 13.0704 13.98 12.5196C13.66 12.5196 13.04 12.329 12.12 11.9477C10.6 11.9477 9.58 12.4773 9.06 13.5364C8.54 14.5533 8.28 15.8243 8.28 17.3495C8.28 19.129 8.34 20.9084 8.46 22.6878C8.54 25.0604 8.58 26.8399 8.58 28.0262C8.58 28.6193 8.54 29.4243 8.46 30.4411C8.38 31.4579 8.34 32.2417 8.34 32.7925C8.22 33.0467 7.82 33.2374 7.14 33.3645C6.46 33.534 5.8 33.6187 5.16 33.6187C4.8 33.6187 4.26 33.5763 3.54 33.4916C2.82 33.4068 2.26 33.3645 1.86 33.3645H0.36C0.36 28.8312 0.3 24.2766 0.18 19.7009C0.14 18.2181 0.1 16.0785 0.0600001 13.2822C0.0200001 10.486 0 8.02866 0 5.91028C0 2.81745 0.18 1.18629 0.54 1.01682C0.86 1.01682 1.2 1.05919 1.56 1.14392C1.92 1.18629 2.28 1.20748 2.64 1.20748C3.12 1.20748 3.58 1.14393 4.02 1.01682C4.9 0.847352 5.88 0.762615 6.96 0.762615C7.88 0.762615 8.42 0.847352 8.58 1.01682C8.58 1.73707 8.62 2.77508 8.7 4.13084C11.18 2.18193 13.76 1.20748 16.44 1.20748C17.8 1.20748 19.04 1.46168 20.16 1.97009C21.32 2.43613 22.18 3.15638 22.74 4.13084C23.54 3.70716 24.12 3.36822 24.48 3.11402C25.6 2.4785 26.54 2.01246 27.3 1.71589C28.1 1.37695 29.06 1.20748 30.18 1.20748C32.5 1.20748 34.2 1.60997 35.28 2.41495C36.36 3.21994 37.04 4.32149 37.32 5.71962C37.64 7.11775 37.8 9.08785 37.8 11.6299ZM37.02 32.6019C36.94 31.585 36.9 30.8012 36.9 30.2505C36.9 28.1321 36.94 24.9545 37.02 20.7178C37.14 17.4554 37.2 14.2355 37.2 11.0579C37.2 8.89719 37.06 7.18131 36.78 5.91028C36.5 4.63925 35.86 3.64361 34.86 2.92336C33.86 2.20311 32.32 1.84299 30.24 1.84299C28.96 1.84299 27.72 2.11838 26.52 2.66916C25.32 3.17757 24.08 3.89782 22.8 4.8299L22.32 4.63925C22 3.58006 21.26 2.881 20.1 2.54205C18.94 2.16075 17.78 1.97009 16.62 1.97009C14.06 1.97009 11.4 2.94455 8.64 4.89346L8.16 4.7028C8.12 4.32149 8.1 3.77072 8.1 3.05047C8.1 2.28785 8.08 1.73707 8.04 1.39813C7.52 1.39813 6.7 1.48287 5.58 1.65233C4.7 1.86417 3.88 1.97009 3.12 1.97009C2.72 1.97009 2.28 1.94891 1.8 1.90654C1.36 1.8218 1.04 1.75825 0.84 1.71589C0.72 5.06293 0.66 8.45233 0.66 11.8841C0.66 14.6804 0.7 18.8748 0.78 24.4673C0.86 28.1956 0.9 30.9707 0.9 32.7925C1.54 32.7078 2.1 32.6654 2.58 32.6654C3.22 32.6654 3.74 32.729 4.14 32.8561C4.3 32.8561 4.76 32.8561 5.52 32.8561C6.32 32.8561 7.06 32.7502 7.74 32.5383L7.8 29.4878C7.88 28.0473 7.92 26.9882 7.92 26.3103C7.92 25.0816 7.86 23.8106 7.74 22.4972C7.7 22.0735 7.66 21.5227 7.62 20.8449C7.58 20.167 7.56 19.362 7.56 18.4299C7.56 16.1421 7.86 14.405 8.46 13.2187C9.06 11.99 10.18 11.3757 11.82 11.3757C12.98 11.3757 13.7 11.5452 13.98 11.8841C14.86 12.0959 15.4 13.1551 15.6 15.0617C15.84 16.9259 15.96 19.2561 15.96 22.0523V25.9925C15.96 26.8399 15.94 27.4966 15.9 27.9626L15.84 30.2505C15.84 31.1826 15.9 32.0299 16.02 32.7925L19.08 32.8561C20.52 32.8561 21.8 32.7713 22.92 32.6019C22.8 31.585 22.74 30.5682 22.74 29.5514C22.74 27.6449 22.76 25.9925 22.8 24.5944C22.84 23.1963 22.88 22.01 22.92 21.0355C23.04 18.2393 23.1 15.4218 23.1 12.5832C23.3 12.1595 23.68 11.8417 24.24 11.6299C24.8 11.4181 25.38 11.3121 25.98 11.3121C27.26 11.3121 28.18 11.7782 28.74 12.7103C29.34 13.6 29.7 14.7651 29.82 16.2056C29.98 17.6037 30.06 19.5526 30.06 22.0523V25.9925C30.06 26.8399 30.04 27.4966 30 27.9626L29.94 30.2505C29.94 31.1826 30 32.0299 30.12 32.7925L33.18 32.8561C34.62 32.8561 35.9 32.7713 37.02 32.6019Z" fill="black"/>
<path d="M37.02 32.6019C36.94 31.585 36.9 30.8012 36.9 30.2505C36.9 28.1321 36.94 24.9545 37.02 20.7178C37.14 17.4554 37.2 14.2355 37.2 11.0579C37.2 8.89719 37.06 7.18131 36.78 5.91028C36.5 4.63925 35.86 3.64361 34.86 2.92336C33.86 2.20311 32.32 1.84299 30.24 1.84299C28.96 1.84299 27.72 2.11838 26.52 2.66916C25.32 3.17757 24.08 3.89782 22.8 4.8299L22.32 4.63925C22 3.58006 21.26 2.881 20.1 2.54205C18.94 2.16075 17.78 1.97009 16.62 1.97009C14.06 1.97009 11.4 2.94455 8.64 4.89346L8.16 4.7028C8.12 4.32149 8.1 3.77072 8.1 3.05047C8.1 2.28785 8.08 1.73707 8.04 1.39813C7.52 1.39813 6.7 1.48287 5.58 1.65233C4.7 1.86417 3.88 1.97009 3.12 1.97009C2.72 1.97009 2.28 1.94891 1.8 1.90654C1.36 1.8218 1.04 1.75825 0.84 1.71589C0.72 5.06293 0.66 8.45233 0.66 11.8841C0.66 14.6804 0.7 18.8748 0.78 24.4673C0.86 28.1956 0.9 30.9707 0.9 32.7925C1.54 32.7078 2.1 32.6654 2.58 32.6654C3.22 32.6654 3.74 32.729 4.14 32.8561H5.52C6.32 32.8561 7.06 32.7502 7.74 32.5383L7.8 29.4878C7.88 28.0473 7.92 26.9882 7.92 26.3103C7.92 25.0816 7.86 23.8106 7.74 22.4972C7.7 22.0735 7.66 21.5227 7.62 20.8449C7.58 20.167 7.56 19.362 7.56 18.4299C7.56 16.1421 7.86 14.405 8.46 13.2187C9.06 11.99 10.18 11.3757 11.82 11.3757C12.98 11.3757 13.7 11.5452 13.98 11.8841C14.86 12.0959 15.4 13.1551 15.6 15.0617C15.84 16.9259 15.96 19.2561 15.96 22.0523V25.9925C15.96 26.8399 15.94 27.4966 15.9 27.9626L15.84 30.2505C15.84 31.1826 15.9 32.0299 16.02 32.7925L19.08 32.8561C20.52 32.8561 21.8 32.7713 22.92 32.6019C22.8 31.585 22.74 30.5682 22.74 29.5514C22.74 27.6449 22.76 25.9925 22.8 24.5944C22.84 23.1963 22.88 22.01 22.92 21.0355C23.04 18.2393 23.1 15.4218 23.1 12.5832C23.3 12.1595 23.68 11.8417 24.24 11.6299C24.8 11.4181 25.38 11.3121 25.98 11.3121C27.26 11.3121 28.18 11.7782 28.74 12.7103C29.34 13.6 29.7 14.7651 29.82 16.2056C29.98 17.6037 30.06 19.5526 30.06 22.0523V25.9925C30.06 26.8399 30.04 27.4966 30 27.9626L29.94 30.2505C29.94 31.1826 30 32.0299 30.12 32.7925L33.18 32.8561C34.62 32.8561 35.9 32.7713 37.02 32.6019Z" fill="#CF5450"/>
</svg>
