<svg width="183" height="60" viewBox="0 0 183 60" fill="none" xmlns="http://www.w3.org/2000/svg">
<path d="M83.4609 38.1406C82.4297 38.1406 81.4609 37.9375 80.5547 37.5312C79.6641 37.125 78.875 36.5703 78.1875 35.8672C77.5156 35.1641 76.9844 34.3516 76.5938 33.4297C76.2188 32.4922 76.0312 31.5 76.0312 30.4531C76.0312 29.3438 76.2266 28.3047 76.6172 27.3359C77.0078 26.3516 77.5547 25.4922 78.2578 24.7578C78.9609 24.0078 79.7734 23.4219 80.6953 23C81.6328 22.5781 82.6406 22.3672 83.7188 22.3672C84.6406 22.3672 85.5781 22.4141 86.5312 22.5078C87.4844 22.6016 88.4453 22.75 89.4141 22.9531L89.3672 26.3281C89.3672 26.5625 89.2031 26.6797 88.875 26.6797C88.7188 26.6797 88.6172 26.6406 88.5703 26.5625C88.5234 26.3594 88.4609 26.1562 88.3828 25.9531C88.3203 25.7344 88.1797 25.4531 87.9609 25.1094C87.5859 24.5625 87.0469 24.1328 86.3438 23.8203C85.6562 23.5078 84.8047 23.3516 83.7891 23.3516C83.0234 23.3516 82.3047 23.5391 81.6328 23.9141C80.9609 24.2734 80.3672 24.7656 79.8516 25.3906C79.3516 26.0156 78.9609 26.7266 78.6797 27.5234C78.3984 28.3047 78.2578 29.1172 78.2578 29.9609C78.2578 31.2578 78.4766 32.4219 78.9141 33.4531C79.3516 34.5156 80.0391 35.3984 80.9766 36.1016C81.9297 36.7891 83.0547 37.1328 84.3516 37.1328C85.8984 37.1328 87.0938 36.6797 87.9375 35.7734C88.1875 35.5078 88.3828 35.1953 88.5234 34.8359C88.6641 34.4766 88.7734 34.1641 88.8516 33.8984C88.9297 33.6328 89.0078 33.5 89.0859 33.5C89.1797 33.5 89.2891 33.5156 89.4141 33.5469C89.5547 33.5625 89.6641 33.5938 89.7422 33.6406L89.8594 33.7109C89.8594 33.8047 89.8281 34.0234 89.7656 34.3672C89.7031 34.7109 89.625 35.0938 89.5312 35.5156C89.4375 35.9219 89.3438 36.2812 89.25 36.5938C89.1719 36.9062 89.1094 37.0781 89.0625 37.1094C87.9062 37.7969 86.0391 38.1406 83.4609 38.1406ZM93.7734 38.1641C93.0547 38.1641 92.4609 37.9766 91.9922 37.6016C91.5234 37.2109 91.2891 36.6328 91.2891 35.8672C91.2891 34.9297 91.8984 34.1484 93.1172 33.5234C93.6484 33.2578 94.1719 33.0469 94.6875 32.8906C95.2188 32.7344 95.75 32.5547 96.2812 32.3516C96.4219 32.3047 96.4922 32.1875 96.4922 32V30.2422C96.4922 29.7422 96.3359 29.3594 96.0234 29.0938C95.7109 28.8125 95.3359 28.6719 94.8984 28.6719C94.4297 28.6719 94.0391 28.8359 93.7266 29.1641C93.4141 29.4766 93.2578 29.8906 93.2578 30.4062C93.2578 30.9531 92.9375 31.2266 92.2969 31.2266C91.8438 31.2266 91.5391 31.0781 91.3828 30.7812C91.3828 30.4531 91.5156 30.1172 91.7812 29.7734C92.0625 29.4141 92.4219 29.0859 92.8594 28.7891C93.2969 28.4922 93.7734 28.25 94.2891 28.0625C94.8203 27.875 95.3438 27.7812 95.8594 27.7812C96.7188 27.7812 97.3359 27.9922 97.7109 28.4141C98.0859 28.8203 98.2734 29.4844 98.2734 30.4062V35.8203C98.2734 36.1484 98.3594 36.4219 98.5312 36.6406C98.7031 36.8594 98.9375 36.9688 99.2344 36.9688C99.4375 36.9688 99.7109 36.8594 100.055 36.6406C100.117 36.6406 100.148 36.7031 100.148 36.8281C100.148 37.0312 100.109 37.1953 100.031 37.3203C99.3906 37.8672 98.8438 38.1406 98.3906 38.1406C98.0312 38.1406 97.6875 37.9922 97.3594 37.6953C97.0312 37.3984 96.8047 37.0859 96.6797 36.7578C96.6016 36.8203 96.5 36.9062 96.375 37.0156C96.2656 37.1094 96.1719 37.1875 96.0938 37.25C95.7656 37.5 95.4062 37.7188 95.0156 37.9062C94.6406 38.0781 94.2266 38.1641 93.7734 38.1641ZM94.6641 36.8281C95.1016 36.8281 95.5156 36.7031 95.9062 36.4531C96.2969 36.2031 96.4922 35.9375 96.4922 35.6562V33.2422C96.0859 33.3984 95.6953 33.5391 95.3203 33.6641C94.9609 33.7891 94.6719 33.8906 94.4531 33.9688C94.1719 34.0781 93.8984 34.2734 93.6328 34.5547C93.3828 34.8359 93.2578 35.1562 93.2578 35.5156C93.2578 35.9844 93.3984 36.3203 93.6797 36.5234C93.9766 36.7266 94.3047 36.8281 94.6641 36.8281ZM100.992 38.0703C100.945 38.0234 100.914 37.8984 100.898 37.6953C100.898 37.4922 100.93 37.3906 100.992 37.3906C101.117 37.3906 101.281 37.3672 101.484 37.3203C101.688 37.2734 101.875 37.2109 102.047 37.1328C102.234 37.0547 102.336 36.9844 102.352 36.9219C102.43 36.6094 102.484 36.2812 102.516 35.9375C102.562 35.5938 102.586 35.2266 102.586 34.8359V29.4453C102.586 29.3359 102.547 29.2812 102.469 29.2812H101.227C101.18 29.2812 101.156 29.2344 101.156 29.1406C101.156 29 101.273 28.8047 101.508 28.5547C101.758 28.3047 102.031 28.1797 102.328 28.1797H102.469C102.547 28.1797 102.586 28.1328 102.586 28.0391V27.7344C102.586 26.9062 102.719 26.1328 102.984 25.4141C103.25 24.6953 103.602 24.0547 104.039 23.4922C104.492 22.9297 104.992 22.4922 105.539 22.1797C106.102 21.8672 106.672 21.7109 107.25 21.7109C108.391 21.7109 109.133 22.0156 109.477 22.625C109.477 23.6094 109.195 24.1016 108.633 24.1016C108.461 24.1016 108.305 24.0312 108.164 23.8906C108.023 23.7344 107.875 23.5625 107.719 23.375C107.578 23.1719 107.406 23 107.203 22.8594C107.016 22.7031 106.789 22.625 106.523 22.625C106.07 22.625 105.68 22.8203 105.352 23.2109C105.023 23.6016 104.773 24.1172 104.602 24.7578C104.445 25.3984 104.367 26.1016 104.367 26.8672V28.0625C104.367 28.1406 104.406 28.1797 104.484 28.1797H107.086C107.164 28.1797 107.203 28.2344 107.203 28.3438C107.203 28.5938 107.109 28.9062 106.922 29.2812H104.508C104.414 29.2812 104.367 29.3281 104.367 29.4219V34.8359C104.367 35.6797 104.438 36.375 104.578 36.9219C104.609 36.9844 104.711 37.0547 104.883 37.1328C105.055 37.2109 105.242 37.2734 105.445 37.3203C105.648 37.3672 105.797 37.3906 105.891 37.3906C105.938 37.3906 105.969 37.4844 105.984 37.6719C106 37.8594 105.992 37.9922 105.961 38.0703L103.453 37.9531L100.992 38.0703ZM112.945 38.1406C112.086 38.1406 111.297 37.9141 110.578 37.4609C109.859 37.0078 109.281 36.4062 108.844 35.6562C108.422 34.8906 108.211 34.0391 108.211 33.1016C108.211 32.0078 108.414 31.0625 108.82 30.2656C109.227 29.4688 109.781 28.8594 110.484 28.4375C111.188 28 111.977 27.7812 112.852 27.7812C113.57 27.7812 114.203 27.9219 114.75 28.2031C115.297 28.4688 115.719 28.8125 116.016 29.2344C116.297 29.6719 116.5 30.1172 116.625 30.5703C116.766 31.0078 116.836 31.4453 116.836 31.8828C116.836 32.1953 116.789 32.3906 116.695 32.4688C116.602 32.5312 116.422 32.5625 116.156 32.5625H110.25C110.125 32.5625 110.062 32.6016 110.062 32.6797C110.062 33.3359 110.195 33.9688 110.461 34.5781C110.727 35.1719 111.117 35.6641 111.633 36.0547C112.148 36.4453 112.781 36.6406 113.531 36.6406C114.188 36.6406 114.734 36.5469 115.172 36.3594C115.625 36.1562 115.953 35.9766 116.156 35.8203L116.32 35.7031C116.414 35.7031 116.461 35.8047 116.461 36.0078C116.461 36.1172 116.414 36.2578 116.32 36.4297C116.008 36.8672 115.547 37.2656 114.938 37.625C114.328 37.9688 113.664 38.1406 112.945 38.1406ZM110.25 31.5781H114.82C114.898 31.5781 114.938 31.5 114.938 31.3438C114.938 31 114.844 30.625 114.656 30.2188C114.484 29.7969 114.219 29.4297 113.859 29.1172C113.5 28.8047 113.047 28.6484 112.5 28.6484C112 28.6484 111.57 28.8203 111.211 29.1641C110.852 29.4922 110.578 29.875 110.391 30.3125C110.203 30.7344 110.109 31.1016 110.109 31.4141C110.109 31.5234 110.156 31.5781 110.25 31.5781ZM123.773 38.0703C123.711 38.0078 123.68 37.8906 123.68 37.7188C123.68 37.5 123.711 37.3906 123.773 37.3906C123.914 37.3906 124.102 37.375 124.336 37.3438C124.57 37.2969 124.789 37.2344 124.992 37.1562C125.195 37.0781 125.312 37 125.344 36.9219C125.406 36.7031 125.445 36.4219 125.461 36.0781C125.492 35.7344 125.508 35.3203 125.508 34.8359V25.7422C125.508 25.2578 125.492 24.8438 125.461 24.5C125.445 24.1406 125.406 23.8594 125.344 23.6562C125.312 23.5625 125.195 23.4844 124.992 23.4219C124.789 23.3438 124.57 23.2812 124.336 23.2344C124.102 23.1875 123.914 23.1641 123.773 23.1641C123.711 23.1641 123.68 23.0625 123.68 22.8594C123.68 22.6719 123.711 22.5469 123.773 22.4844C123.914 22.4844 124.148 22.5 124.477 22.5312C124.82 22.5469 125.188 22.5703 125.578 22.6016C125.969 22.6172 126.305 22.625 126.586 22.625C127.086 22.625 127.586 22.6094 128.086 22.5781C128.586 22.5312 128.992 22.5 129.305 22.4844C129.336 22.5469 129.344 22.6797 129.328 22.8828C129.328 23.0703 129.305 23.1641 129.258 23.1641C129.164 23.1641 129 23.1953 128.766 23.2578C128.531 23.3047 128.312 23.3672 128.109 23.4453C127.906 23.5078 127.789 23.5781 127.758 23.6562C127.617 24.1875 127.547 24.9141 127.547 25.8359V29.3281L127.594 29.3984C128.359 29.4141 129.039 29.4297 129.633 29.4453C130.227 29.4453 130.734 29.4453 131.156 29.4453C131.609 29.4453 132.125 29.4453 132.703 29.4453C133.281 29.4297 133.922 29.4141 134.625 29.3984C134.656 29.3672 134.672 29.3359 134.672 29.3047V25.7422C134.672 25.2578 134.656 24.8438 134.625 24.5C134.609 24.1406 134.57 23.8594 134.508 23.6562C134.477 23.5625 134.359 23.4844 134.156 23.4219C133.953 23.3438 133.734 23.2812 133.5 23.2344C133.266 23.1875 133.078 23.1641 132.938 23.1641C132.875 23.1641 132.844 23.0625 132.844 22.8594C132.844 22.6719 132.875 22.5469 132.938 22.4844C133.062 22.4844 133.297 22.5 133.641 22.5312C133.984 22.5469 134.352 22.5703 134.742 22.6016C135.148 22.6172 135.492 22.625 135.773 22.625C136.273 22.625 136.766 22.6094 137.25 22.5781C137.734 22.5312 138.133 22.5 138.445 22.4844C138.477 22.6094 138.492 22.7266 138.492 22.8359C138.492 23.0547 138.461 23.1641 138.398 23.1641C138.305 23.1641 138.141 23.1953 137.906 23.2578C137.672 23.3047 137.453 23.3672 137.25 23.4453C137.047 23.5078 136.93 23.5781 136.898 23.6562C136.836 23.9062 136.789 24.2109 136.758 24.5703C136.727 24.9297 136.711 25.3516 136.711 25.8359V34.7422C136.711 35.2266 136.727 35.6484 136.758 36.0078C136.789 36.3672 136.836 36.6719 136.898 36.9219C136.93 36.9844 137.047 37.0547 137.25 37.1328C137.453 37.2109 137.672 37.2734 137.906 37.3203C138.141 37.3672 138.305 37.3906 138.398 37.3906C138.461 37.3906 138.492 37.5078 138.492 37.7422C138.492 37.8359 138.477 37.9453 138.445 38.0703C137.664 38.0391 137.047 38.0156 136.594 38C136.156 37.9688 135.883 37.9531 135.773 37.9531L132.938 38.0703C132.875 38.0078 132.844 37.875 132.844 37.6719C132.844 37.4844 132.875 37.3906 132.938 37.3906C133.078 37.3906 133.266 37.375 133.5 37.3438C133.734 37.2969 133.953 37.2344 134.156 37.1562C134.359 37.0781 134.477 37 134.508 36.9219C134.57 36.7031 134.609 36.4219 134.625 36.0781C134.656 35.7344 134.672 35.3203 134.672 34.8359V30.7109L134.625 30.6172C133.891 30.6016 133.234 30.5938 132.656 30.5938C132.078 30.5781 131.578 30.5703 131.156 30.5703C128.75 30.5703 127.547 30.6094 127.547 30.6875V34.7422C127.547 35.6484 127.617 36.375 127.758 36.9219C127.789 36.9844 127.906 37.0547 128.109 37.1328C128.312 37.2109 128.531 37.2734 128.766 37.3203C129 37.3672 129.164 37.3906 129.258 37.3906C129.305 37.3906 129.328 37.4844 129.328 37.6719C129.344 37.8594 129.336 37.9922 129.305 38.0703C128.523 38.0391 127.906 38.0156 127.453 38C127 37.9688 126.711 37.9531 126.586 37.9531L123.773 38.0703ZM147.961 38.1875C147.836 38.1875 147.773 38.0625 147.773 37.8125V36.6172C147.773 36.5391 147.758 36.5 147.727 36.5C146.695 37.6094 145.672 38.1641 144.656 38.1641C143.922 38.1641 143.336 37.9531 142.898 37.5312C142.477 37.0938 142.172 36.5469 141.984 35.8906C141.812 35.2188 141.727 34.5234 141.727 33.8047V30.8516C141.727 30.2578 141.617 29.8359 141.398 29.5859C141.242 29.3984 141.055 29.2734 140.836 29.2109C140.633 29.1484 140.445 29.1172 140.273 29.1172C140.117 29.1016 140.039 29.0781 140.039 29.0469C140.039 28.6719 140.086 28.4766 140.18 28.4609C141.008 28.3359 141.672 28.2266 142.172 28.1328C142.688 28.0234 142.984 27.9609 143.062 27.9453L143.531 27.8281C143.594 27.8125 143.633 27.875 143.648 28.0156C143.664 28.1562 143.664 28.2578 143.648 28.3203C143.555 29.0703 143.508 29.6484 143.508 30.0547V33.2188C143.508 34.4219 143.688 35.3125 144.047 35.8906C144.406 36.4531 144.992 36.7344 145.805 36.7344C146.117 36.7344 146.422 36.6484 146.719 36.4766C147.031 36.3047 147.281 36.1016 147.469 35.8672C147.672 35.6172 147.773 35.4062 147.773 35.2344V30.8516C147.773 30.2578 147.664 29.8359 147.445 29.5859C147.289 29.3984 147.102 29.2734 146.883 29.2109C146.68 29.1484 146.492 29.1094 146.32 29.0938C146.164 29.0781 146.086 29.0625 146.086 29.0469C146.086 28.6719 146.133 28.4766 146.227 28.4609C147.055 28.3359 147.672 28.2344 148.078 28.1562C148.5 28.0781 148.836 28.0078 149.086 27.9453L149.578 27.8281C149.641 27.8125 149.68 27.875 149.695 28.0156C149.711 28.1562 149.711 28.2578 149.695 28.3203C149.602 29.0703 149.555 29.6328 149.555 30.0078V34.6953C149.555 35.3984 149.609 35.9922 149.719 36.4766C149.766 36.6328 149.891 36.7344 150.094 36.7812C150.297 36.8125 150.531 36.8438 150.797 36.875L151.102 36.8984C151.148 36.9141 151.172 37 151.172 37.1562C151.172 37.2031 151.148 37.2812 151.102 37.3906C151.07 37.4844 151.031 37.5312 150.984 37.5312C150.516 37.5625 150 37.6484 149.438 37.7891C148.875 37.9141 148.453 38.0312 148.172 38.1406L147.961 38.1875ZM155.578 38.2578C155.094 38.2578 154.656 38.2031 154.266 38.0938C153.875 37.9844 153.398 37.8906 152.836 37.8125C152.773 37.6406 152.711 37.4062 152.648 37.1094C152.586 36.8125 152.531 36.5 152.484 36.1719C152.453 35.8438 152.438 35.5781 152.438 35.375C152.562 35.2812 152.656 35.2344 152.719 35.2344C152.953 35.2344 153.078 35.2812 153.094 35.375C153.156 35.6875 153.312 36 153.562 36.3125C153.812 36.625 154.117 36.8906 154.477 37.1094C154.836 37.3125 155.203 37.4141 155.578 37.4141C156.078 37.4141 156.484 37.2812 156.797 37.0156C157.125 36.7344 157.289 36.3359 157.289 35.8203C157.289 35.2734 157.078 34.8203 156.656 34.4609C156.328 34.1953 156.047 34.0078 155.812 33.8984C155.594 33.7734 155.375 33.6641 155.156 33.5703C154.953 33.4609 154.695 33.3125 154.383 33.125C153.164 32.4219 152.555 31.5859 152.555 30.6172C152.555 30.0547 152.711 29.5625 153.023 29.1406C153.336 28.7031 153.75 28.3672 154.266 28.1328C154.797 27.8828 155.359 27.7578 155.953 27.7578C156.125 27.7578 156.32 27.7734 156.539 27.8047C156.758 27.8203 157 27.8438 157.266 27.875C157.531 27.9219 157.75 27.9609 157.922 27.9922C158.094 28.0234 158.234 28.0469 158.344 28.0625C158.516 28.7812 158.609 29.5781 158.625 30.4531C158.625 30.5312 158.523 30.5703 158.32 30.5703C158.102 30.5703 157.984 30.5156 157.969 30.4062C157.891 29.9688 157.664 29.5547 157.289 29.1641C156.93 28.7734 156.516 28.5781 156.047 28.5781C154.922 28.5781 154.359 29.0391 154.359 29.9609C154.359 30.1953 154.383 30.4062 154.43 30.5938C154.492 30.7656 154.625 30.9297 154.828 31.0859C155.312 31.4609 155.883 31.8359 156.539 32.2109C157.211 32.5859 157.766 32.9375 158.203 33.2656C158.859 33.7656 159.188 34.3516 159.188 35.0234C159.188 35.6328 159.023 36.1875 158.695 36.6875C158.367 37.1719 157.93 37.5547 157.383 37.8359C156.836 38.1172 156.234 38.2578 155.578 38.2578ZM160.312 38.0703C160.25 38.0078 160.219 37.875 160.219 37.6719C160.219 37.4844 160.25 37.3906 160.312 37.3906C160.438 37.3906 160.609 37.3672 160.828 37.3203C161.047 37.2734 161.25 37.2109 161.438 37.1328C161.625 37.0547 161.727 36.9844 161.742 36.9219C161.805 36.7031 161.844 36.4531 161.859 36.1719C161.891 35.8906 161.906 35.5938 161.906 35.2812V25.1328C161.906 24.6016 161.859 24.1016 161.766 23.6328C161.703 23.3828 161.305 23.2578 160.57 23.2578H160.359C160.266 23.2578 160.219 23.1719 160.219 23C160.219 22.75 160.266 22.625 160.359 22.625C161.156 22.5469 161.828 22.4219 162.375 22.25C162.922 22.0625 163.297 21.9141 163.5 21.8047L163.617 21.7344H163.664C163.727 21.7344 163.789 21.7812 163.852 21.875C163.914 21.9531 163.953 22.0312 163.969 22.1094C163.797 22.625 163.711 23.3047 163.711 24.1484V32.3516C164.023 32.2891 164.219 32.2188 164.297 32.1406L165.375 31.2266L166.219 30.5234C166.484 30.3047 166.711 30.1016 166.898 29.9141C167.102 29.7266 167.203 29.5547 167.203 29.3984C167.203 29.1953 167.031 29.0859 166.688 29.0703C166.375 29.0547 166.195 29.0234 166.148 28.9766C166.023 28.6641 166.031 28.4844 166.172 28.4375H168.023C168.57 28.4375 169.016 28.4219 169.359 28.3906C169.703 28.3594 170.117 28.3359 170.602 28.3203C170.695 28.3359 170.734 28.4531 170.719 28.6719C170.703 28.875 170.656 28.9766 170.578 28.9766C170.453 28.9766 170.273 29 170.039 29.0469C169.82 29.0938 169.609 29.1484 169.406 29.2109C169.203 29.2578 169.055 29.3125 168.961 29.375C168.789 29.4688 168.492 29.6719 168.07 29.9844C167.664 30.2969 167.227 30.6562 166.758 31.0625C166.289 31.4531 165.867 31.8359 165.492 32.2109C166.695 33.4922 167.633 34.5234 168.305 35.3047C168.992 36.0859 169.438 36.5703 169.641 36.7578C169.906 36.9766 170.242 37.1484 170.648 37.2734C171.055 37.3828 171.344 37.4375 171.516 37.4375C171.578 37.4375 171.609 37.5625 171.609 37.8125C171.609 37.9688 171.602 38.0547 171.586 38.0703L169.031 37.9531L166.594 38.0703C166.531 38.0078 166.5 37.8828 166.5 37.6953C166.5 37.5234 166.531 37.4375 166.594 37.4375C166.75 37.4375 166.93 37.4062 167.133 37.3438C167.336 37.2812 167.438 37.2109 167.438 37.1328C167.438 37.1016 167.43 37.0781 167.414 37.0625L163.992 33.3594L163.711 33.4297V34.8359C163.711 35.3516 163.727 35.7891 163.758 36.1484C163.805 36.4922 163.852 36.75 163.898 36.9219C163.93 36.9844 164.039 37.0547 164.227 37.1328C164.414 37.2109 164.617 37.2734 164.836 37.3203C165.055 37.3672 165.211 37.3906 165.305 37.3906C165.352 37.3906 165.383 37.4844 165.398 37.6719C165.414 37.8594 165.406 37.9922 165.375 38.0703L162.867 37.9531L160.312 38.0703ZM174.328 43.3203C174 43.3203 173.758 43.2188 173.602 43.0156C173.445 42.8125 173.367 42.6094 173.367 42.4062C173.367 42.0781 173.477 41.8281 173.695 41.6562C174.992 41.6562 175.852 40.9844 176.273 39.6406C176.352 39.4062 176.445 39.125 176.555 38.7969C176.664 38.4688 176.75 38.2031 176.812 38L173.461 29.7969C173.383 29.6094 173.305 29.4531 173.227 29.3281C173.148 29.1875 173.07 29.0781 172.992 29C172.852 28.8594 172.633 28.7422 172.336 28.6484C172.055 28.5547 171.828 28.5078 171.656 28.5078C171.594 28.5078 171.562 28.4062 171.562 28.2031C171.562 28.0156 171.594 27.8906 171.656 27.8281C172.078 27.8438 172.492 27.8672 172.898 27.8984C173.32 27.9141 173.75 27.9219 174.188 27.9219C174.688 27.9219 175.117 27.9141 175.477 27.8984C175.836 27.8672 176.164 27.8438 176.461 27.8281C176.492 27.9531 176.508 28.0703 176.508 28.1797C176.508 28.3984 176.477 28.5078 176.414 28.5078C176.352 28.5078 176.234 28.5312 176.062 28.5781C175.906 28.625 175.75 28.6875 175.594 28.7656C175.438 28.8281 175.344 28.9062 175.312 29V29.0469C175.312 29.3125 176.148 31.3516 177.82 35.1641L179.602 30.0312C179.711 29.7188 179.766 29.4766 179.766 29.3047C179.766 29.0703 179.641 28.8828 179.391 28.7422C179.156 28.5859 178.836 28.5078 178.43 28.5078C178.367 28.5078 178.336 28.4062 178.336 28.2031C178.336 28.0156 178.367 27.8906 178.43 27.8281C178.633 27.8438 178.938 27.8672 179.344 27.8984C179.75 27.9297 180.141 27.9453 180.516 27.9453C180.859 27.9453 181.234 27.9297 181.641 27.8984C182.047 27.8672 182.352 27.8438 182.555 27.8281C182.586 27.9531 182.602 28.0703 182.602 28.1797C182.602 28.3984 182.57 28.5078 182.508 28.5078C182.305 28.5078 182.031 28.5781 181.688 28.7188C181.344 28.8594 181.109 29.0859 180.984 29.3984L176.789 40.7188C176.43 41.6875 176.023 42.3594 175.57 42.7344C175.117 43.125 174.703 43.3203 174.328 43.3203Z" fill="#0E0D0D"/>
<path fill-rule="evenodd" clip-rule="evenodd" d="M30 1C13.9837 1 1 13.9837 1 30C1 46.0163 13.9837 59 30 59C46.0163 59 59 46.0163 59 30C59 13.9837 46.0163 1 30 1ZM0 30C0 13.4315 13.4315 0 30 0C46.5685 0 60 13.4315 60 30C60 46.5685 46.5685 60 30 60C13.4315 60 0 46.5685 0 30ZM30 2.81754C14.9875 2.81754 2.81754 14.9875 2.81754 30C2.81754 43.9354 13.3039 55.4215 26.8161 56.998C25.5912 54.1249 24.7659 50.8876 24.2023 48.256C23.9332 46.9997 23.7225 45.8747 23.5568 44.9903C23.5324 44.8602 23.509 44.7353 23.4866 44.616C23.3985 44.1481 23.3259 43.7715 23.2649 43.4976C23.2343 43.3602 23.2085 43.2571 23.187 43.1851C23.184 43.175 23.1813 43.1661 23.1788 43.1585C23.1602 43.1464 23.1301 43.1284 23.0848 43.1054C22.9717 43.0478 22.807 42.9801 22.5894 42.9078C22.156 42.7639 21.5507 42.6142 20.8114 42.4906C19.3338 42.2437 17.3546 42.1065 15.2 42.3117C13.4087 42.4823 12.3634 42.308 11.6988 41.9158C11.1783 41.6086 10.919 41.1555 10.7652 40.8731C10.3604 40.8049 10.0169 40.7303 9.75163 40.67C9.69013 40.656 9.63457 40.6433 9.58396 40.6316C9.50093 40.6125 9.4312 40.5964 9.37037 40.5833C9.28398 40.5646 9.25343 40.5607 9.2535 40.5599C9.25353 40.5596 9.25723 40.5597 9.26356 40.5597C8.96218 40.5597 8.74081 40.3672 8.62559 40.2503C8.48911 40.1118 8.36461 39.9359 8.25676 39.7617C8.03873 39.4095 7.83893 38.9823 7.70068 38.6512C7.69169 38.6296 7.68294 38.6084 7.67441 38.5876C7.28559 38.3489 6.9036 38.02 6.58593 37.6689C6.22965 37.2751 5.91372 36.8086 5.77873 36.3586C5.69929 36.0938 5.73246 35.8311 5.79702 35.6131C5.86223 35.393 5.96984 35.1827 6.08501 34.998C6.31481 34.6294 6.61456 34.2993 6.82444 34.1026L6.86539 34.0642L6.91383 34.0358C10.3315 32.0352 12.7577 30.2544 14.3898 28.8348C15.9143 27.5087 16.709 26.5294 16.9956 26.0018C16.9557 25.709 16.9171 25.3523 16.9171 24.9668C16.9171 24.8171 16.9677 24.6609 17.0114 24.5447C17.0617 24.4106 17.133 24.2538 17.2217 24.0797C17.3997 23.7303 17.6614 23.2845 18.0052 22.7648C18.6907 21.7289 19.7153 20.38 21.0871 18.8867C21.7531 17.9876 23.7684 16.0014 26.9993 14.4427C26.826 13.9121 26.7525 13.2542 26.7323 12.5837C26.7044 11.6574 26.7773 10.6128 26.9028 9.63584C27.0282 8.65924 27.2083 7.73286 27.401 7.04207C27.4964 6.69988 27.6002 6.39604 27.7102 6.16855C27.7641 6.05712 27.831 5.93938 27.9152 5.84188C27.9848 5.76128 28.1536 5.59242 28.4176 5.59242H28.4487L28.4796 5.59628C28.6501 5.61759 28.7792 5.70678 28.8478 5.75974C28.9283 5.82187 29.0047 5.89795 29.0743 5.97436C29.2144 6.12801 29.372 6.33334 29.5388 6.56258C29.7034 6.78875 29.9005 7.07184 30.1138 7.37824C30.317 7.67005 30.5349 7.98302 30.7534 8.28811C31.7001 9.60949 32.8171 11.01 33.9192 11.6764C36.3436 13.1423 37.7017 15.227 38.1372 16.2229C39.806 17.8893 42.8064 21.6199 46.0026 26.265C49.0591 30.7071 52.3145 36.0142 54.7753 41.1997C56.3216 37.7846 57.1825 33.9928 57.1825 30C57.1825 14.9875 45.0125 2.81754 30 2.81754ZM54.2151 42.3624C51.7504 37.0121 48.3623 31.4585 45.1788 26.8319C41.9475 22.1357 38.9493 18.4269 37.364 16.8644L37.2904 16.7919L37.2516 16.6961C36.9382 15.9231 35.7046 13.9245 33.4018 12.5321C32.0992 11.7445 30.8744 10.174 29.9405 8.87048C29.6968 8.53029 29.4807 8.21942 29.2835 7.93578C29.1198 7.70024 28.9691 7.48348 28.8265 7.28431C28.7705 9.03206 29.0231 11.166 29.5026 13.2719C30.0913 15.8568 31.0065 18.3317 32.0525 19.9408L31.3177 20.6012C28.8673 18.608 27.7199 16.6076 27.3148 15.4013C24.5155 16.7744 22.7284 18.4583 22.0378 19.2948C23.1371 22.2483 26.5559 28.5021 33.8793 32.067L34.2006 32.2234L34.1567 32.578C33.8761 34.8459 33.4105 39.9774 33.7372 42.5908L33.7523 42.712L33.7099 42.8265C33.369 43.747 32.466 46.6464 31.6968 49.7379C31.3127 51.2816 30.9643 52.864 30.7365 54.2642C30.5473 55.4269 30.4467 56.4326 30.4666 57.1785C40.8298 57.0041 49.7811 51.0303 54.2151 42.3624ZM29.4664 57.1773C29.447 56.3268 29.562 55.2558 29.7495 54.1036C29.9834 52.6662 30.3387 51.0548 30.7264 49.4964C31.4724 46.4982 32.3471 43.6623 32.7305 42.5937C32.4302 39.9468 32.8443 35.1804 33.1219 32.8077C26.1041 29.2673 22.6155 23.3675 21.2978 20.1477C20.2225 21.3688 19.4051 22.4614 18.8392 23.3166C18.51 23.8143 18.2691 24.2267 18.1128 24.5336C18.0343 24.6876 17.9805 24.8085 17.9476 24.8962C17.9269 24.9513 17.9195 24.9804 17.9171 24.9892C17.9188 25.3628 17.9634 25.713 18.0072 26.0132L18.0282 26.1577L17.9682 26.2909C17.653 26.9898 16.7144 28.1381 15.0461 29.5893C13.4597 30.9692 11.1734 32.6571 8.02908 34.5379C8.18807 34.7436 8.32994 35.0005 8.44299 35.3053C8.7031 36.0067 8.8314 37.0058 8.67438 38.3853C8.79639 38.6661 8.95078 38.9829 9.107 39.2353C9.19758 39.3816 9.27668 39.4863 9.33781 39.5483C9.34436 39.555 9.3502 39.5606 9.35534 39.5654C9.43652 39.5745 9.52051 39.5926 9.58201 39.6059C9.64862 39.6203 9.72959 39.639 9.81839 39.6594C9.86792 39.6708 9.91989 39.6828 9.97317 39.6949C10.2791 39.7644 10.6803 39.8508 11.1561 39.923C13.1248 40.2218 16.8264 40.1169 19.7753 38.3117L19.8008 38.2961L21.5057 37.5147L21.9224 38.4237L20.2716 39.1804C17.5796 40.8179 14.3707 41.1509 12.1638 41.028C12.1777 41.0369 12.1921 41.0457 12.2071 41.0546C12.5926 41.2821 13.3733 41.4812 15.1052 41.3162C17.3546 41.102 19.4214 41.2445 20.9762 41.5043C21.7531 41.6342 22.4106 41.7947 22.9046 41.9588C23.1507 42.0405 23.3659 42.1263 23.5386 42.2143C23.6895 42.2911 23.8819 42.4051 24.001 42.5719C24.0778 42.6795 24.1211 42.8177 24.1455 42.8998C24.1768 43.0049 24.2085 43.1344 24.241 43.2803C24.3061 43.5729 24.3817 43.9656 24.4693 44.431C24.4919 44.5513 24.5155 44.6768 24.5399 44.8073C24.7056 45.692 24.9139 46.8038 25.1801 48.0466C25.7738 50.8188 26.6489 54.2091 27.9556 57.1067C28.4555 57.1439 28.9593 57.1676 29.4664 57.1773ZM7.74128 37.4001C7.75717 36.605 7.64875 36.0396 7.50539 35.653C7.41437 35.4076 7.31318 35.242 7.22489 35.1326C7.12323 35.2525 7.02026 35.388 6.93361 35.527C6.84721 35.6656 6.78705 35.7918 6.75585 35.8971C6.72399 36.0047 6.73212 36.0565 6.73656 36.0713C6.81129 36.3204 7.01964 36.6578 7.32746 36.998C7.45736 37.1416 7.59768 37.2776 7.74128 37.4001ZM1.81754 30C1.81754 14.4353 14.4353 1.81754 30 1.81754C45.5647 1.81754 58.1825 14.4353 58.1825 30C58.1825 45.5647 45.5647 58.1825 30 58.1825C14.4353 58.1825 1.81754 45.5647 1.81754 30ZM21.3361 25.9048L24.5104 27.7896L22.5492 29.2239L21.5388 29.8753L21.2842 29.7486C20.7207 29.4682 20.3101 29.1587 20.0602 28.8055C19.796 28.4321 19.7283 28.0318 19.8196 27.6475C19.905 27.2882 20.1191 26.9834 20.3406 26.7415C20.5658 26.4957 20.8312 26.2802 21.0688 26.1035L21.3361 25.9048ZM21.0832 27.4114C21.0814 27.4132 21.0797 27.4151 21.078 27.417C20.9113 27.599 20.8221 27.7544 20.7926 27.8786C20.769 27.9778 20.775 28.0843 20.8766 28.2279C20.9302 28.3038 21.0122 28.3913 21.1334 28.4877C21.0071 28.2505 20.9685 27.9991 20.9969 27.7571C21.0111 27.6365 21.0413 27.5209 21.0832 27.4114ZM22.2242 28.2227L22.6978 27.8763L22.1467 27.5491C22.057 27.664 22.0011 27.7803 21.9901 27.8738C21.9831 27.9333 21.9924 27.9881 22.0376 28.0525C22.0692 28.0975 22.1257 28.1569 22.2242 28.2227Z" fill="#0E0D0D"/>
<path fill-rule="evenodd" clip-rule="evenodd" d="M1 30C1 13.9837 13.9837 1 30 1C46.0163 1 59 13.9837 59 30C59 46.0163 46.0163 59 30 59C13.9837 59 1 46.0163 1 30ZM1.81754 30C1.81754 14.4353 14.4353 1.81754 30 1.81754C45.5647 1.81754 58.1825 14.4353 58.1825 30C58.1825 45.5647 45.5647 58.1825 30 58.1825C14.4353 58.1825 1.81754 45.5647 1.81754 30Z" fill="#0E0D0D"/>
<path d="M21.078 27.417L21.0832 27.4114C21.0413 27.5209 21.0111 27.6365 20.9969 27.7571C20.9685 27.9991 21.0071 28.2505 21.1334 28.4877C21.0122 28.3913 20.9302 28.3038 20.8766 28.2279C20.775 28.0843 20.769 27.9778 20.7926 27.8786C20.8221 27.7544 20.9113 27.599 21.078 27.417Z" fill="#0E0D0D"/>
</svg>
