<svg width="60" height="60" viewBox="0 0 60 60" fill="none" xmlns="http://www.w3.org/2000/svg">
<path fill-rule="evenodd" clip-rule="evenodd" d="M30 1C13.9837 1 1 13.9837 1 30C1 46.0163 13.9837 59 30 59C46.0163 59 59 46.0163 59 30C59 13.9837 46.0163 1 30 1ZM0 30C0 13.4315 13.4315 0 30 0C46.5685 0 60 13.4315 60 30C60 46.5685 46.5685 60 30 60C13.4315 60 0 46.5685 0 30ZM30 2.81754C14.9875 2.81754 2.81754 14.9875 2.81754 30C2.81754 43.9354 13.3039 55.4215 26.8161 56.998C25.5912 54.1249 24.7659 50.8876 24.2023 48.256C23.9332 46.9997 23.7225 45.8747 23.5568 44.9903C23.5324 44.8602 23.509 44.7353 23.4866 44.616C23.3985 44.1481 23.3259 43.7715 23.2649 43.4976C23.2343 43.3602 23.2085 43.2571 23.187 43.1851C23.184 43.175 23.1813 43.1661 23.1788 43.1585C23.1602 43.1464 23.1301 43.1284 23.0848 43.1054C22.9717 43.0478 22.807 42.9801 22.5894 42.9078C22.156 42.7639 21.5507 42.6142 20.8114 42.4906C19.3338 42.2437 17.3546 42.1065 15.2 42.3117C13.4087 42.4823 12.3634 42.308 11.6988 41.9158C11.1783 41.6086 10.919 41.1555 10.7652 40.8731C10.3604 40.8049 10.0169 40.7303 9.75163 40.67C9.69013 40.656 9.63457 40.6433 9.58396 40.6316C9.50093 40.6125 9.4312 40.5964 9.37037 40.5833C9.28398 40.5646 9.25343 40.5607 9.2535 40.5599C9.25353 40.5596 9.25723 40.5597 9.26356 40.5597C8.96218 40.5597 8.74081 40.3672 8.62559 40.2503C8.48911 40.1118 8.36461 39.9359 8.25676 39.7617C8.03873 39.4095 7.83893 38.9823 7.70068 38.6512C7.69169 38.6296 7.68294 38.6084 7.67441 38.5876C7.28559 38.3489 6.9036 38.02 6.58593 37.6689C6.22965 37.2751 5.91372 36.8086 5.77873 36.3586C5.69929 36.0938 5.73246 35.8311 5.79702 35.6131C5.86223 35.393 5.96984 35.1827 6.08501 34.998C6.31481 34.6294 6.61456 34.2993 6.82444 34.1026L6.86539 34.0642L6.91383 34.0358C10.3315 32.0352 12.7577 30.2544 14.3898 28.8348C15.9143 27.5087 16.709 26.5294 16.9956 26.0018C16.9557 25.709 16.9171 25.3523 16.9171 24.9668C16.9171 24.8171 16.9677 24.6609 17.0114 24.5447C17.0617 24.4106 17.133 24.2538 17.2217 24.0797C17.3997 23.7303 17.6614 23.2845 18.0052 22.7648C18.6907 21.7289 19.7153 20.38 21.0871 18.8867C21.7531 17.9876 23.7684 16.0014 26.9993 14.4427C26.826 13.9121 26.7525 13.2542 26.7323 12.5837C26.7044 11.6574 26.7773 10.6128 26.9028 9.63584C27.0282 8.65924 27.2083 7.73286 27.401 7.04207C27.4964 6.69988 27.6002 6.39604 27.7102 6.16855C27.7641 6.05712 27.831 5.93938 27.9152 5.84188C27.9848 5.76128 28.1536 5.59242 28.4176 5.59242H28.4487L28.4796 5.59628C28.6501 5.61759 28.7792 5.70678 28.8478 5.75974C28.9283 5.82187 29.0047 5.89795 29.0743 5.97436C29.2144 6.12801 29.372 6.33334 29.5388 6.56258C29.7034 6.78875 29.9005 7.07184 30.1138 7.37824C30.317 7.67005 30.5349 7.98302 30.7534 8.28811C31.7001 9.60949 32.8171 11.01 33.9192 11.6764C36.3436 13.1423 37.7017 15.227 38.1372 16.2229C39.806 17.8893 42.8064 21.6199 46.0026 26.265C49.0591 30.7071 52.3145 36.0142 54.7753 41.1997C56.3216 37.7846 57.1825 33.9928 57.1825 30C57.1825 14.9875 45.0125 2.81754 30 2.81754ZM54.2151 42.3624C51.7504 37.0121 48.3623 31.4585 45.1788 26.8319C41.9475 22.1357 38.9493 18.4269 37.364 16.8644L37.2904 16.7919L37.2516 16.6961C36.9382 15.9231 35.7046 13.9245 33.4018 12.5321C32.0992 11.7445 30.8744 10.174 29.9405 8.87048C29.6968 8.53029 29.4807 8.21942 29.2835 7.93578C29.1198 7.70024 28.9691 7.48348 28.8265 7.28431C28.7705 9.03206 29.0231 11.166 29.5026 13.2719C30.0913 15.8568 31.0065 18.3317 32.0525 19.9408L31.3177 20.6012C28.8673 18.608 27.7199 16.6076 27.3148 15.4013C24.5155 16.7744 22.7284 18.4583 22.0378 19.2948C23.1371 22.2483 26.5559 28.5021 33.8793 32.067L34.2006 32.2234L34.1567 32.578C33.8761 34.8459 33.4105 39.9774 33.7372 42.5908L33.7523 42.712L33.7099 42.8265C33.369 43.747 32.466 46.6464 31.6968 49.7379C31.3127 51.2816 30.9643 52.864 30.7365 54.2642C30.5473 55.4269 30.4467 56.4326 30.4666 57.1785C40.8298 57.0041 49.7811 51.0303 54.2151 42.3624ZM29.4664 57.1773C29.447 56.3268 29.562 55.2558 29.7495 54.1036C29.9834 52.6662 30.3387 51.0548 30.7264 49.4964C31.4724 46.4982 32.3471 43.6623 32.7305 42.5937C32.4302 39.9468 32.8443 35.1804 33.1219 32.8077C26.1041 29.2673 22.6155 23.3675 21.2978 20.1477C20.2225 21.3688 19.4051 22.4614 18.8392 23.3166C18.51 23.8143 18.2691 24.2267 18.1128 24.5336C18.0343 24.6876 17.9805 24.8085 17.9476 24.8962C17.9269 24.9513 17.9195 24.9804 17.9171 24.9892C17.9188 25.3628 17.9634 25.713 18.0072 26.0132L18.0282 26.1577L17.9682 26.2909C17.653 26.9898 16.7144 28.1381 15.0461 29.5893C13.4597 30.9692 11.1734 32.6571 8.02908 34.5379C8.18807 34.7436 8.32994 35.0005 8.44299 35.3053C8.7031 36.0067 8.8314 37.0058 8.67438 38.3853C8.79639 38.6661 8.95078 38.9829 9.107 39.2353C9.19758 39.3816 9.27668 39.4863 9.33781 39.5483C9.34436 39.555 9.3502 39.5606 9.35534 39.5654C9.43652 39.5745 9.52051 39.5926 9.58201 39.6059C9.64862 39.6203 9.72959 39.639 9.81839 39.6594C9.86792 39.6708 9.91989 39.6828 9.97317 39.6949C10.2791 39.7644 10.6803 39.8508 11.1561 39.923C13.1248 40.2218 16.8264 40.1169 19.7753 38.3117L19.8008 38.2961L21.5057 37.5147L21.9224 38.4237L20.2716 39.1804C17.5796 40.8179 14.3707 41.1509 12.1638 41.028C12.1777 41.0369 12.1921 41.0457 12.2071 41.0546C12.5926 41.2821 13.3733 41.4812 15.1052 41.3162C17.3546 41.102 19.4214 41.2445 20.9762 41.5043C21.7531 41.6342 22.4106 41.7947 22.9046 41.9588C23.1507 42.0405 23.3659 42.1263 23.5386 42.2143C23.6895 42.2911 23.8819 42.4051 24.001 42.5719C24.0778 42.6795 24.1211 42.8177 24.1455 42.8998C24.1768 43.0049 24.2085 43.1344 24.241 43.2803C24.3061 43.5729 24.3817 43.9656 24.4693 44.431C24.4919 44.5513 24.5155 44.6768 24.5399 44.8073C24.7056 45.692 24.9139 46.8038 25.1801 48.0466C25.7738 50.8188 26.6489 54.2091 27.9556 57.1067C28.4555 57.1439 28.9593 57.1676 29.4664 57.1773ZM7.74128 37.4001C7.75717 36.605 7.64875 36.0396 7.50539 35.653C7.41437 35.4076 7.31318 35.242 7.22489 35.1326C7.12323 35.2525 7.02026 35.388 6.93361 35.527C6.84721 35.6656 6.78705 35.7918 6.75585 35.8971C6.72399 36.0047 6.73212 36.0565 6.73656 36.0713C6.81129 36.3204 7.01964 36.6578 7.32746 36.998C7.45736 37.1416 7.59768 37.2776 7.74128 37.4001ZM1.81754 30C1.81754 14.4353 14.4353 1.81754 30 1.81754C45.5647 1.81754 58.1825 14.4353 58.1825 30C58.1825 45.5647 45.5647 58.1825 30 58.1825C14.4353 58.1825 1.81754 45.5647 1.81754 30ZM21.3361 25.9048L24.5104 27.7896L22.5492 29.2239L21.5388 29.8753L21.2842 29.7486C20.7207 29.4682 20.3101 29.1587 20.0602 28.8055C19.796 28.4321 19.7283 28.0318 19.8196 27.6475C19.905 27.2882 20.1191 26.9834 20.3406 26.7415C20.5658 26.4957 20.8312 26.2802 21.0688 26.1035L21.3361 25.9048ZM21.0832 27.4114C21.0814 27.4132 21.0797 27.4151 21.078 27.417C20.9113 27.599 20.8221 27.7544 20.7926 27.8786C20.769 27.9778 20.775 28.0843 20.8766 28.2279C20.9302 28.3038 21.0122 28.3913 21.1334 28.4877C21.0071 28.2505 20.9685 27.9991 20.9969 27.7571C21.0111 27.6365 21.0413 27.5209 21.0832 27.4114ZM22.2242 28.2227L22.6978 27.8763L22.1467 27.5491C22.057 27.664 22.0011 27.7803 21.9901 27.8738C21.9831 27.9333 21.9924 27.9881 22.0376 28.0525C22.0692 28.0975 22.1257 28.1569 22.2242 28.2227Z" fill="white"/>
<path fill-rule="evenodd" clip-rule="evenodd" d="M1 30C1 13.9837 13.9837 1 30 1C46.0163 1 59 13.9837 59 30C59 46.0163 46.0163 59 30 59C13.9837 59 1 46.0163 1 30ZM1.81754 30C1.81754 14.4353 14.4353 1.81754 30 1.81754C45.5647 1.81754 58.1825 14.4353 58.1825 30C58.1825 45.5647 45.5647 58.1825 30 58.1825C14.4353 58.1825 1.81754 45.5647 1.81754 30Z" fill="white"/>
<path d="M21.078 27.417L21.0832 27.4114C21.0413 27.5209 21.0111 27.6365 20.9969 27.7571C20.9685 27.9991 21.0071 28.2505 21.1334 28.4877C21.0122 28.3913 20.9302 28.3038 20.8766 28.2279C20.775 28.0843 20.769 27.9778 20.7926 27.8786C20.8221 27.7544 20.9113 27.599 21.078 27.417Z" fill="white"/>
</svg>
