<svg width="186" height="155" viewBox="0 0 186 155" fill="none" xmlns="http://www.w3.org/2000/svg">
<path d="M26.5021 80.1237C25.5227 83.5406 23.6617 91.0577 24.0535 93.7912M47.07 86.4693C45.7641 89.3981 43.3482 95.8414 44.1317 98.1844M21.6049 105.018C21.6049 107.459 21.6049 110.838 26.0124 111.852C31.1054 113.023 32.8683 109.899 32.8683 107.947C33.1948 110.225 34.5334 114.488 39.2346 115.269C43.9358 116.05 46.0906 113.804 47.07 111.852M125.424 149.926C83.6352 154.156 13.7695 153.831 4.95475 129.913C-6.64274 98.4439 28.9506 2.02357 102.408 2.99982C175.864 3.97607 191.535 121.615 178.803 134.306C166.661 146.408 130.321 149.43 125.424 149.926Z" stroke="#3A3A3A" stroke-width="5" stroke-linecap="round" stroke-linejoin="round"/>
</svg>
